<svg width="60" height="56" viewBox="0 0 60 56" fill="none" xmlns="http://www.w3.org/2000/svg">
<g clip-path="url(#clip0_1_175)">
<path d="M49.1318 27.2067C49.9191 26.4394 50.1971 25.3132 49.8574 24.2664C49.517 23.2195 48.6304 22.4722 47.5411 22.3136L37.8558 20.9063C37.4433 20.8462 37.0869 20.5875 36.9027 20.2135L32.5727 11.4374C32.0865 10.4514 31.0997 9.83864 30 9.83864C28.9011 9.83864 27.9143 10.4514 27.4281 11.4374L23.0973 20.2135C22.9131 20.5875 22.5559 20.8462 22.1434 20.9063L12.4582 22.3144C11.3697 22.4722 10.483 23.2195 10.1426 24.2664C9.80298 25.3132 10.0809 26.4394 10.8683 27.2067L17.8759 34.0373C18.1746 34.3288 18.3116 34.7485 18.2411 35.1586L16.5871 44.8046C16.4013 45.8883 16.8378 46.9624 17.7277 47.6096C18.6168 48.2575 19.7741 48.3416 20.7489 47.8282L29.4105 43.274C29.7798 43.0801 30.2203 43.0801 30.5895 43.274L39.2519 47.8282C39.6748 48.0509 40.133 48.1606 40.5887 48.1606C41.1806 48.1606 41.7701 47.9756 42.2731 47.6096C43.163 46.9624 43.5995 45.8883 43.4137 44.8046L41.7589 35.1594C41.6884 34.7485 41.8254 34.3296 42.1242 34.0381L49.1318 27.2067ZM40.181 35.4302L41.835 45.0753C41.9183 45.5607 41.7301 46.0245 41.3312 46.3144C40.9315 46.6036 40.4341 46.6388 39.9976 46.4113L31.3352 41.8563C30.9179 41.6376 30.4582 41.5271 30 41.5271C29.5419 41.5271 29.0829 41.6376 28.6648 41.8571L20.004 46.4113C19.5659 46.6388 19.0685 46.6036 18.6696 46.3144C18.2707 46.0245 18.0833 45.5615 18.1658 45.0753L19.8198 35.4302C19.9792 34.4994 19.6708 33.5495 18.9948 32.8911L11.9864 26.0597C11.6332 25.7153 11.513 25.2299 11.666 24.7613C11.8182 24.292 12.2003 23.97 12.688 23.8987L22.3725 22.4914C23.3072 22.3561 24.1154 21.7698 24.5327 20.9223L28.8635 12.1462C29.0813 11.7041 29.5066 11.4406 29.9992 11.4406C30.4926 11.4406 30.9171 11.7041 31.1358 12.1462L35.4666 20.9223C35.8839 21.7698 36.6912 22.3561 37.626 22.4914L47.3112 23.8987C47.799 23.97 48.181 24.292 48.3332 24.7613C48.4854 25.2299 48.3661 25.7153 48.0128 26.0597L41.0052 32.8903C40.3292 33.5495 40.0208 34.4986 40.181 35.4302Z" fill="white"/>
</g>
<path d="M13.0518 36.3154L9.01036 38.6487C8.45236 38.9709 7.77614 38.8443 7.5 38.366C7.22386 37.8877 7.45235 37.2388 8.01036 36.9167L12.0518 34.5833C12.6098 34.2612 13.286 34.3877 13.5622 34.866C13.8383 35.3443 13.6098 35.9932 13.0518 36.3154Z" fill="white"/>
<path d="M42.2718 16.6987L45.3573 13.1976C45.7833 12.7142 45.7928 12.0263 45.3785 11.6612C44.9641 11.296 44.2829 11.3919 43.8569 11.8753L40.7714 15.3764C40.3454 15.8598 40.3359 16.5476 40.7502 16.9128C41.1646 17.278 41.8458 17.1821 42.2718 16.6987Z" fill="white"/>
<path d="M46.5436 37.9863L50.5851 40.3196C51.1431 40.6418 51.8193 40.5152 52.0955 40.0369C52.3716 39.5586 52.1431 38.9097 51.5851 38.5876L47.5436 36.2542C46.9856 35.9321 46.3094 36.0586 46.0333 36.5369C45.7571 37.0152 45.9856 37.6641 46.5436 37.9863Z" fill="white"/>
<path d="M17.8569 16.6987L14.7714 13.1976C14.3454 12.7142 14.3359 12.0263 14.7503 11.6612C15.1646 11.296 15.8458 11.3919 16.2719 11.8753L19.3573 15.3764C19.7834 15.8598 19.7928 16.5476 19.3785 16.9128C18.9641 17.278 18.2829 17.1821 17.8569 16.6987Z" fill="white"/>
<path d="M31 5.83333V1.16667C31 0.522334 30.5523 0 30 0C29.4477 0 29 0.522334 29 1.16667V5.83333C29 6.47767 29.4477 7 30 7C30.5523 7 31 6.47767 31 5.83333Z" fill="white"/>
<path d="M11.2391 53.539L14.539 50.2392C14.9946 49.7836 15.0473 49.0976 14.6568 48.7071C14.2663 48.3166 13.5804 48.3693 13.1247 48.825L9.82492 52.1248C9.36931 52.5804 9.31654 53.2663 9.70707 53.6569C10.0976 54.0474 10.7835 53.9946 11.2391 53.539Z" fill="white"/>
<path d="M44.825 51.2391L48.1248 54.539C48.5805 54.9946 49.2664 55.0473 49.6569 54.6568C50.0474 54.2663 49.9947 53.5804 49.5391 53.1247L46.2392 49.8249C45.7836 49.3693 45.0977 49.3165 44.7072 49.7071C44.3166 50.0976 44.3694 50.7835 44.825 51.2391Z" fill="white"/>
<path d="M54.0103 23.6487L58.0518 21.3154C58.6098 20.9932 58.8383 20.3443 58.5621 19.866C58.286 19.3877 57.6098 19.2612 57.0518 19.5833L53.0103 21.9167C52.4523 22.2388 52.2238 22.8877 52.5 23.366C52.7761 23.8443 53.4523 23.9709 54.0103 23.6487Z" fill="white"/>
<path d="M1.12685 23.2336L5.6345 24.4414C6.25688 24.6082 6.87729 24.3109 7.02023 23.7774C7.16318 23.244 6.77452 22.6763 6.15214 22.5096L1.64449 21.3017C1.02211 21.135 0.401695 21.4322 0.258753 21.9657C0.115811 22.4992 0.504471 23.0668 1.12685 23.2336Z" fill="white"/>
<path d="M31 52.8333V48.1667C31 47.5223 30.5523 47 30 47C29.4477 47 29 47.5223 29 48.1667V52.8333C29 53.4777 29.4477 54 30 54C30.5523 54 31 53.4777 31 52.8333Z" fill="white"/>
<defs>
<clipPath id="clip0_1_175">
<rect width="40" height="40" fill="white" transform="translate(10 9)"/>
</clipPath>
</defs>
</svg>
